<?xml version="1.0" encoding="iso-8859-1"?>
<!-- Generator: Adobe Illustrator 19.0.0, SVG Export Plug-In . SVG Version: 6.00 Build 0)  -->
<svg version="1.1" id="Capa_1" xmlns="http://www.w3.org/2000/svg" xmlns:xlink="http://www.w3.org/1999/xlink" x="0px" y="0px"
	 viewBox="0 0 512 512" style="enable-background:new 0 0 512 512;" xml:space="preserve">
<path style="fill:#2EA2DB;" d="M69.6,365.6c72,72,184,80.8,265.6,25.6l79.2,94.4c19.2,23.2,54.4,24.8,75.2,3.2l0,0
	c21.6-21.6,20-56-3.2-75.2L392,334.4C445.6,253.6,438.4,144,368,72"/>
<path style="fill:#193651;" d="M60,367.2c-4-4-7.2-8-11.2-12.8l12-10.4c3.2,4,6.4,8,10.4,11.2L60,367.2z M38.4,341.6
	c-3.2-4.8-6.4-9.6-8.8-13.6l13.6-8c2.4,4,5.6,8.8,8,12.8L38.4,341.6z M21.6,312.8c-2.4-4.8-4.8-10.4-6.4-15.2l15.2-5.6
	c1.6,4,4,8.8,5.6,13.6L21.6,312.8z M9.6,281.6c-1.6-5.6-3.2-10.4-4-16l16-3.2c0.8,4.8,2.4,9.6,4,15.2L9.6,281.6z M2.4,249.6
	c-0.8-5.6-1.6-11.2-1.6-16.8l16-0.8c0,4.8,0.8,10.4,1.6,15.2L2.4,249.6z M16,216.8H0c0-5.6,0-11.2,0.8-16.8l16,1.6
	C16,206.4,16,211.2,16,216.8z M18.4,185.6l-16-2.4c0.8-5.6,1.6-11.2,3.2-16l15.2,4C20,176,19.2,180.8,18.4,185.6z M25.6,156
	l-15.2-4.8c1.6-5.6,3.2-10.4,5.6-16l15.2,6.4C28.8,146.4,27.2,151.2,25.6,156z M36.8,127.2L22.4,120c2.4-4.8,4.8-9.6,8-14.4l13.6,8
	C41.6,118.4,39.2,122.4,36.8,127.2z M52.8,100.8L40,92c3.2-4.8,6.4-8.8,10.4-12.8l12,10.4C59.2,92.8,56,96.8,52.8,100.8z M72.8,77.6
	l-12-11.2c4-4,8-7.2,11.2-11.2l0.8-0.8l10.4,12l-0.8,0.8C79.2,70.4,76,73.6,72.8,77.6z M362.4,76.8c-3.2-4-7.2-7.2-11.2-10.4
	l10.4-12c4,4,8,7.2,12,11.2L362.4,76.8z M95.2,56.8L85.6,44c4.8-3.2,8.8-6.4,13.6-9.6L108,48C104,51.2,99.2,53.6,95.2,56.8z
	 M339.2,56.8c-4-3.2-8-6.4-12.8-8.8l8.8-13.6c4.8,3.2,9.6,6.4,13.6,9.6L339.2,56.8z M313.6,40c-4.8-2.4-8.8-4.8-13.6-6.4l6.4-14.4
	c4.8,2.4,10.4,4.8,15.2,7.2L313.6,40z M121.6,40l-7.2-14.4c4.8-2.4,9.6-4.8,15.2-7.2l6.4,14.4C130.4,35.2,125.6,37.6,121.6,40z
	 M285.6,28c-4.8-1.6-9.6-3.2-14.4-4.8l4-15.2c5.6,1.6,10.4,3.2,16,4.8L285.6,28z M149.6,28L144,12.8c4.8-1.6,10.4-3.2,16-4.8l4,15.2
	C159.2,24.8,154.4,26.4,149.6,28z M256,20c-4.8-0.8-10.4-1.6-15.2-2.4l1.6-16c5.6,0.8,11.2,1.6,16.8,2.4L256,20z M179.2,20L176,4
	c5.6-0.8,11.2-1.6,16.8-2.4l1.6,16C189.6,18.4,184,19.2,179.2,20z M224.8,16.8c-4.8,0-10.4,0-15.2,0l-0.8-16c5.6,0,11.2,0,16.8,0
	L224.8,16.8z"/>
<path style="fill:#FFFFFF;" d="M341.6,164.8c0-68.8-60.8-124-135.2-120.8c-63.2,3.2-116,50.4-121.6,110.4
	c-2.4,30.4,6.4,58.4,23.2,80.8c20.8,27.2,35.2,26.4,40,60l1.6,22.4h124.8l1.6-8.8c4.8-34.4,20-45.6,41.6-74.4
	C332.8,214.4,341.6,191.2,341.6,164.8z"/>
<path style="fill:#FDBF5E;stroke:#193651;stroke-width:2;stroke-miterlimit:10;" d="M341.6,162.4C340,95.2,280,40.8,206.4,44
	c-63.2,3.2-116,50.4-121.6,110.4c0,2.4,0,5.6,0,8"/>
<g>
	<path style="fill:#FFFFFF;" d="M269.6,317.6h-112c-10.4,0-19.2,8.8-19.2,19.2l0,0c0,10.4,8.8,19.2,19.2,19.2h112
		c10.4,0,19.2-8.8,19.2-19.2l0,0C288.8,325.6,280,317.6,269.6,317.6z"/>
	<path style="fill:#FFFFFF;" d="M246.4,356H180v16c0,10.4,7.2,18.4,16.8,18.4h33.6c8.8,0,16.8-8,16.8-18.4v-16H246.4z"/>
</g>
<g>
	<path style="fill:#193651;" d="M491.2,407.2l-88.8-74.4c52.8-84,41.6-195.2-28-267.2l-11.2,11.2c65.6,68,75.2,174.4,22.4,252.8
		l-4.8,6.4l100,84c9.6,8,15.2,19.2,15.2,31.2c0.8,12-4,24-12.8,32c-8.8,8.8-20,12.8-32,12.8c-12-0.8-23.2-6.4-31.2-15.2L336,380
		l-5.6,4c-80,53.6-187.2,44-255.2-24.8l-11.2,12c72,72,184,84,269.6,30.4l74.4,88.8c10.4,12.8,26.4,20,42.4,20.8c0.8,0,1.6,0,2.4,0
		c16,0,30.4-6.4,41.6-17.6c12-12,17.6-28,17.6-44C511.2,433.6,503.2,417.6,491.2,407.2z"/>
	<path style="fill:#193651;" d="M206.4,36c-68,3.2-123.2,53.6-128.8,117.6c-2.4,31.2,6.4,61.6,24.8,86.4c7.2,9.6,14.4,16,19.2,21.6
		c10.4,9.6,16,15.2,19.2,34.4l1.6,18.4c-7.2,4.8-12,12.8-12,22.4c0,15.2,12,27.2,27.2,27.2h15.2v8c0,14.4,11.2,26.4,24.8,26.4h33.6
		c13.6,0,24.8-12,24.8-26.4v-8h15.2c15.2,0,27.2-12,27.2-27.2c0-9.6-4.8-17.6-12-22.4l0.8-4.8c3.2-24.8,12.8-36,26.4-52.8
		c4-4.8,8.8-10.4,13.6-17.6c16-21.6,24.8-47.2,24.8-73.6C349.6,92,284.8,32.8,206.4,36z M238.4,371.2c0,5.6-4,10.4-8.8,10.4H196
		c-4.8,0-8.8-4.8-8.8-10.4v-8h50.4v8H238.4z M269.6,348h-112c-6.4,0-11.2-4.8-11.2-11.2c0-6.4,4.8-11.2,11.2-11.2h112
		c6.4,0,11.2,4.8,11.2,11.2C280.8,342.4,275.2,348,269.6,348z M312,229.6c-4.8,6.4-8.8,12-12.8,16.8c-14.4,17.6-25.6,32-29.6,60.8
		v2.4h-47.2V195.2H260v-16h-92.8v16h37.6v114.4h-47.2l-1.6-15.2c-3.2-24.8-12.8-32.8-24-44c-5.6-4.8-11.2-10.4-17.6-19.2
		c-16.8-22.4-24-48-21.6-75.2c4.8-56,53.6-100,113.6-103.2c68.8-3.2,126.4,48.8,126.4,112.8C333.6,188,326.4,210.4,312,229.6z"/>
</g>
<g>
</g>
<g>
</g>
<g>
</g>
<g>
</g>
<g>
</g>
<g>
</g>
<g>
</g>
<g>
</g>
<g>
</g>
<g>
</g>
<g>
</g>
<g>
</g>
<g>
</g>
<g>
</g>
<g>
</g>
</svg>
